<?xml version="1.0" encoding="utf-8"?>
<!-- Generator: Adobe Illustrator 28.1.0, SVG Export Plug-In . SVG Version: 6.00 Build 0)  -->
<svg version="1.1" id="Layer_2_00000100346780073471123560000010513061767869698691_"
	 xmlns="http://www.w3.org/2000/svg" xmlns:xlink="http://www.w3.org/1999/xlink" x="0px" y="0px" viewBox="0 0 385.2 385.2"
	 style="enable-background:new 0 0 385.2 385.2;" xml:space="preserve">
<style type="text/css">
	.st0{display:none;opacity:0.2;}
	.st1{display:inline;fill:none;stroke:#D1D1D1;stroke-width:1.19;stroke-miterlimit:10;}
	.st2{display:none;}
	.st3{fill:#FFFFFF;}
</style>
<g class="st0">
	<rect x="0.6" y="0.6" class="st1" width="384" height="384"/>
	<line class="st1" x1="384.6" y1="24.6" x2="0.6" y2="24.6"/>
	<line class="st1" x1="384.6" y1="48.6" x2="0.6" y2="48.6"/>
	<line class="st1" x1="384.6" y1="72.6" x2="0.6" y2="72.6"/>
	<line class="st1" x1="384.6" y1="96.6" x2="0.6" y2="96.6"/>
	<line class="st1" x1="384.6" y1="120.6" x2="0.6" y2="120.6"/>
	<line class="st1" x1="384.6" y1="144.6" x2="0.6" y2="144.6"/>
	<line class="st1" x1="384.6" y1="168.6" x2="0.6" y2="168.6"/>
	<line class="st1" x1="384.6" y1="192.6" x2="0.6" y2="192.6"/>
	<line class="st1" x1="384.6" y1="216.6" x2="0.6" y2="216.6"/>
	<line class="st1" x1="384.6" y1="240.6" x2="0.6" y2="240.6"/>
	<line class="st1" x1="384.6" y1="264.6" x2="0.6" y2="264.6"/>
	<line class="st1" x1="384.6" y1="288.6" x2="0.6" y2="288.6"/>
	<line class="st1" x1="384.6" y1="312.6" x2="0.6" y2="312.6"/>
	<line class="st1" x1="384.6" y1="336.6" x2="0.6" y2="336.6"/>
	<line class="st1" x1="384.6" y1="360.6" x2="0.6" y2="360.6"/>
	<line class="st1" x1="24.6" y1="384.6" x2="24.6" y2="0.6"/>
	<line class="st1" x1="48.6" y1="384.6" x2="48.6" y2="0.6"/>
	<line class="st1" x1="72.6" y1="384.6" x2="72.6" y2="0.6"/>
	<line class="st1" x1="96.6" y1="384.6" x2="96.6" y2="0.6"/>
	<line class="st1" x1="120.6" y1="384.6" x2="120.6" y2="0.6"/>
	<line class="st1" x1="144.6" y1="384.6" x2="144.6" y2="0.6"/>
	<line class="st1" x1="168.6" y1="384.6" x2="168.6" y2="0.6"/>
	<line class="st1" x1="192.6" y1="384.6" x2="192.6" y2="0.6"/>
	<line class="st1" x1="216.6" y1="384.6" x2="216.6" y2="0.6"/>
	<line class="st1" x1="240.6" y1="384.6" x2="240.6" y2="0.6"/>
	<line class="st1" x1="264.6" y1="384.6" x2="264.6" y2="0.6"/>
	<line class="st1" x1="288.6" y1="384.6" x2="288.6" y2="0.6"/>
	<line class="st1" x1="312.6" y1="384.6" x2="312.6" y2="0.6"/>
	<line class="st1" x1="336.6" y1="384.6" x2="336.6" y2="0.6"/>
	<line class="st1" x1="360.6" y1="384.6" x2="360.6" y2="0.6"/>
</g>
<g>
	<path class="st2" d="M144.7,96.5c105.7,0,191.8,86,191.8,191.8h-96c0-52.8-42.9-95.8-95.8-95.8V96.5z"/>
	<path class="st3" d="M144.7,96.5c105.7,0,191.8,86,191.8,191.8h-96c0-52.8-42.9-95.8-95.8-95.8V96.5z"/>
	<path class="st3" d="M144.7,192.2c-53,0-96,43-96,96h96V192.2z"/>
</g>
</svg>
