<svg width="58" height="58" viewBox="0 0 58 58" fill="none" xmlns="http://www.w3.org/2000/svg">
<g id="Layer_1" clip-path="url(#clip0_4_37)" filter="url(#filter0_f_4_37)">
<path id="Vector" d="M2 31.6995C2 3.35034 3.35034 2 31.6995 2H26.2993C54.6497 2 55.9989 3.35034 55.9989 31.6995V26.2993C55.9989 54.6497 54.6485 55.9989 26.2993 55.9989H31.6995C3.35034 56 2 54.6497 2 26.3005V31.7007V31.6995Z" fill="#002A46" fill-opacity="0.75"/>
<g id="Group">
<path id="Vector_2" d="M42.5952 23.5601C42.5952 23.5601 42.5952 23.5511 42.5952 23.5477C42.5816 17.5839 37.7427 12.7529 31.7744 12.7529V34.3685C37.7416 34.3685 42.5805 29.5375 42.5952 23.5737C42.5952 23.5737 42.5952 23.5647 42.5952 23.5613V23.5601Z" fill="url(#paint0_linear_4_37)" fill-opacity="0.75"/>
<path id="Vector_3" d="M29.475 12.762H18.6543V45.2242H29.475V12.762Z" fill="url(#paint1_linear_4_37)" fill-opacity="0.75"/>
</g>
</g>
<defs>
<filter id="filter0_f_4_37" x="0" y="0" width="58" height="58" filterUnits="userSpaceOnUse" color-interpolation-filters="sRGB">
<feFlood flood-opacity="0" result="BackgroundImageFix"/>
<feBlend mode="normal" in="SourceGraphic" in2="BackgroundImageFix" result="shape"/>
<feGaussianBlur stdDeviation="1" result="effect1_foregroundBlur_4_37"/>
</filter>
<linearGradient id="paint0_linear_4_37" x1="32.143" y1="23.5601" x2="41.5514" y2="23.5601" gradientUnits="userSpaceOnUse">
<stop stop-color="#00AFFF" stop-opacity="0"/>
<stop offset="1" stop-color="#00AFFF"/>
</linearGradient>
<linearGradient id="paint1_linear_4_37" x1="24.0647" y1="65.0712" x2="24.0647" y2="12.3675" gradientUnits="userSpaceOnUse">
<stop stop-color="#00AFFF" stop-opacity="0"/>
<stop offset="0.82" stop-color="#00AFFF"/>
</linearGradient>
<clipPath id="clip0_4_37">
<rect width="54" height="54" fill="white" transform="translate(2 2)"/>
</clipPath>
</defs>
</svg>
