<svg width="75" height="75" viewBox="0 0 75 75" fill="none" xmlns="http://www.w3.org/2000/svg">
<g id="Layer_1" clip-path="url(#clip0_4_27)">
<path id="Vector" d="M0 41.2494C0 1.87547 1.87547 0 41.2494 0H33.7491C73.1245 0 74.9984 1.87547 74.9984 41.2494V33.7491C74.9984 73.1245 73.123 74.9984 33.7491 74.9984H41.2494C1.87547 75 0 73.1245 0 33.7506V41.2509V41.2494Z" fill="#002A46"/>
<g id="Group">
<path id="Vector_2" d="M59.7251 14.9393C59.7251 23.2396 52.9966 29.9681 44.6963 29.9681V14.9393H59.7251Z" fill="url(#paint0_linear_4_27)"/>
<path id="Vector_3" d="M44.6964 60.0257H29.6676V29.9681H18.396V14.9393H30.5411C38.3467 14.9393 44.6964 21.289 44.6964 29.0946V60.0257Z" fill="url(#paint1_linear_4_27)"/>
</g>
</g>
<defs>
<linearGradient id="paint0_linear_4_27" x1="44.6963" y1="22.4537" x2="59.7251" y2="22.4537" gradientUnits="userSpaceOnUse">
<stop stop-color="#00AFFF" stop-opacity="0"/>
<stop offset="1" stop-color="#00AFFF"/>
</linearGradient>
<linearGradient id="paint1_linear_4_27" x1="31.5462" y1="70.9514" x2="31.5462" y2="10.9285" gradientUnits="userSpaceOnUse">
<stop stop-color="#00AFFF" stop-opacity="0"/>
<stop offset="0.82" stop-color="#00AFFF"/>
</linearGradient>
<clipPath id="clip0_4_27">
<rect width="75" height="75" fill="white"/>
</clipPath>
</defs>
</svg>
