<svg id="visual" viewBox="0 0 900 600" width="900" height="600" xmlns="http://www.w3.org/2000/svg" xmlns:xlink="http://www.w3.org/1999/xlink" version="1.1"><rect x="0" y="0" width="900" height="600" fill="#282E30"></rect><path d="M0 103L37.5 94.2C75 85.3 150 67.7 225 64.5C300 61.3 375 72.7 450 73.5C525 74.3 600 64.7 675 66.8C750 69 825 83 862.5 90L900 97L900 0L862.5 0C825 0 750 0 675 0C600 0 525 0 450 0C375 0 300 0 225 0C150 0 75 0 37.5 0L0 0Z" fill="#282e30"></path><path d="M0 65L37.5 58.8C75 52.7 150 40.3 225 40.8C300 41.3 375 54.7 450 56.8C525 59 600 50 675 42.2C750 34.3 825 27.7 862.5 24.3L900 21L900 0L862.5 0C825 0 750 0 675 0C600 0 525 0 450 0C375 0 300 0 225 0C150 0 75 0 37.5 0L0 0Z" fill="#ffbddb"></path></svg>