<svg id="visual" viewBox="0 0 450 900" width="450" height="900" xmlns="http://www.w3.org/2000/svg" xmlns:xlink="http://www.w3.org/1999/xlink" version="1.1"><rect x="0" y="0" width="450" height="900" fill="#282e30"></rect><path d="M0 192L15 175.8C30 159.7 60 127.3 90 121.7C120 116 150 137 180 141.2C210 145.3 240 132.7 270 120C300 107.3 330 94.7 360 88C390 81.3 420 80.7 435 80.3L450 80L450 0L435 0C420 0 390 0 360 0C330 0 300 0 270 0C240 0 210 0 180 0C150 0 120 0 90 0C60 0 30 0 15 0L0 0Z" fill="#FFD6E0"></path></svg>